<?xml version="1.0" encoding="iso-8859-1"?>
<svg version="1.1" id="Layer_1" xmlns="http://www.w3.org/2000/svg" xmlns:xlink="http://www.w3.org/1999/xlink" x="0px" y="0px"
	 viewBox="0 0 512 512" style="enable-background:new 0 0 512 512; stroke: white; stroke-width: 15px" xml:space="preserve" fill="#FE1C41">
<g>
	<g>
		<path d="M447.283,99.79L352.384,4.891C349.253,1.759,345.006,0,340.578,0H76.522c-9.22,0-16.696,7.475-16.696,16.696v478.609
			c0,9.22,7.475,16.696,16.696,16.696h358.957c9.22,0,16.696-7.475,16.696-16.696V111.596
			C452.174,107.167,450.414,102.921,447.283,99.79z M418.783,478.609H93.217V33.391h240.445l85.12,85.12V478.609z"/>
	</g>
</g>
<g>
	<g>
		<path d="M334.127,351.364c-26.569,0-48.186,21.616-48.186,48.186s21.616,48.186,48.186,48.186s48.186-21.616,48.186-48.186
			S360.696,351.364,334.127,351.364z M334.127,414.345c-8.157,0-14.795-6.637-14.795-14.795s6.637-14.795,14.795-14.795
			s14.795,6.637,14.795,14.795S342.284,414.345,334.127,414.345z"/>
	</g>
</g>
<g>
	<g>
		<path d="M189.263,382.855h-42.88c-9.22,0-16.696,7.475-16.696,16.696s7.475,16.696,16.696,16.696h42.88
			c9.22,0,16.696-7.475,16.696-16.696S198.483,382.855,189.263,382.855z"/>
	</g>
</g>
<g>
	<g>
		<path d="M189.263,95.754h-42.88c-9.22,0-16.696,7.475-16.696,16.696c0,9.22,7.474,16.696,16.696,16.696h42.88
			c9.22,0,16.696-7.475,16.696-16.696C205.959,103.229,198.484,95.754,189.263,95.754z"/>
	</g>
</g>
<g>
	<g>
		<path d="M365.618,172.134H146.383c-9.222,0-16.696,7.475-16.696,16.696c0,9.22,7.475,16.696,16.696,16.696h219.235
			c9.22,0,16.696-7.475,16.696-16.696C382.314,179.61,374.839,172.134,365.618,172.134z"/>
	</g>
</g>
<g>
	<g>
		<path d="M365.617,248.515H146.383c-9.22,0-16.696,7.475-16.696,16.696c0,9.22,7.475,16.696,16.696,16.696h219.235
			c9.22,0,16.696-7.475,16.696-16.696C382.314,255.99,374.839,248.515,365.617,248.515z"/>
	</g>
</g>
</svg>
