<?xml version="1.0" encoding="iso-8859-1"?>
<svg version="1.1" id="Capa_1" xmlns="http://www.w3.org/2000/svg" xmlns:xlink="http://www.w3.org/1999/xlink" x="0px" y="0px"
	 viewBox="0 0 329.996 329.996" style="enable-background:new 0 0 329.996 329.996; stroke: white; stroke-width: 15px" xml:space="preserve" fill="#FE1C41">
<path d="M264.207,129.996l52.504-65.629c3.603-4.503,4.305-10.671,1.807-15.869c-2.498-5.197-7.754-8.502-13.52-8.502l-125,0.004V15
	c0-3.979-1.58-7.794-4.394-10.607C172.791,1.58,168.975,0,164.997,0l-140,0.005c-8.283,0-14.999,6.716-14.999,15v0.009v149.982v150
	c0,8.284,6.716,15,15,15s15-6.716,15-15v-135h110v25c0,8.284,6.716,15,15,15h140c5.766,0,11.022-3.305,13.52-8.502
	c2.498-5.197,1.796-11.366-1.807-15.869L264.207,129.996z M39.998,149.996V30.004l110-0.004v25v94.996H39.998z M179.998,189.996v-25
	V69.999l93.79-0.002l-40.503,50.628c-4.383,5.479-4.383,13.263,0,18.741l40.504,50.629H179.998z"/>
</svg>
