<?xml version="1.0" encoding="iso-8859-1"?>
<svg version="1.1" id="Layer_1" xmlns="http://www.w3.org/2000/svg" xmlns:xlink="http://www.w3.org/1999/xlink" x="0px" y="0px"
	 viewBox="0 0 515 475" style="enable-background:new 0 0 511.999 511.999;" xml:space="preserve" fill="#FE1C41" >
<g>
	<g>
		<path d="M482.323,260.616l28.763-55.246c1.305-2.505,1.206-5.509-0.259-7.923c-1.465-2.414-4.084-3.888-6.908-3.888h-65.729
			c-3.564-24.837-13.573-47.756-29.063-65.994c-2.888-3.4-7.986-3.817-11.39-0.929c-3.4,2.888-3.816,7.989-0.928,11.39
			c17.207,20.259,26.683,47.277,26.683,76.078c0,9.074-1.375,18.446-4.057,27.929H169.077c-4.464,0-8.08,3.618-8.08,8.081
			c0,4.463,3.617,8.08,8.08,8.08h266.887v101.809H75.593V258.195h67.266c4.464,0,8.081-3.618,8.081-8.08
			c0-4.463-3.617-8.081-8.081-8.081H92.114c-2.683-9.483-4.057-18.855-4.057-27.929c0-58.951,40.188-106.91,89.584-106.91
			c38.628,0,70.053,37.645,70.053,83.918c0,4.463,3.617,8.081,8.081,8.081c4.464,0,8.08-3.618,8.08-8.081
			c0-46.273,31.425-83.918,70.052-83.918c16.226,0,32.121,5.243,45.974,15.161c3.624,2.596,8.675,1.765,11.274-1.865
			c2.599-3.629,1.764-8.676-1.865-11.274c-16.611-11.894-35.761-18.182-55.381-18.182c-34.527,0-64.379,23.681-78.133,57.789
			c-13.754-34.108-43.605-57.789-78.134-57.789c-52.295,0-95.836,44.41-104.264,102.525H8.08c-2.824,0-5.443,1.474-6.908,3.888
			c-1.464,2.414-1.563,5.418-0.259,7.923l28.763,55.246L0.913,315.872c-1.305,2.505-1.206,5.509,0.259,7.923
			c1.465,2.414,4.084,3.888,6.908,3.888h51.352v40.4c0,4.463,3.617,8.08,8.081,8.08H181.18
			c21.934,16.221,46.394,31.376,70.915,43.915c1.155,0.59,2.417,0.886,3.678,0.886c1.262,0,2.523-0.295,3.678-0.886
			c24.522-12.539,48.982-27.693,70.915-43.915h113.676c4.464,0,8.08-3.618,8.08-8.08v-40.4h51.795c2.824,0,5.443-1.474,6.908-3.888
			c1.464-2.414,1.563-5.418,0.259-7.923L482.323,260.616z M67.514,242.034c-4.464,0-8.08,3.618-8.08,8.081v61.408H21.396v0
			l24.557-47.176c1.217-2.339,1.217-5.124,0-7.463L21.397,209.72H71.97c-0.044,1.457-0.074,2.917-0.074,4.385
			c0,9.144,1.186,18.501,3.503,27.929H67.514z M255.773,403.789c-15.815-8.263-31.53-17.628-46.475-27.624h92.949
			C287.305,386.16,271.59,395.526,255.773,403.789z M452.125,311.523v-61.408c0-4.463-3.617-8.08-8.081-8.08h-7.893
			c2.317-9.429,3.503-18.785,3.503-27.929c0-1.466-0.029-2.927-0.073-4.385h51.022l-24.556,47.164c-1.217,2.339-1.217,5.124,0,7.463
			l24.557,47.176H452.125z" />
	</g>
</g>
<g>
	<g>
		<path d="M200.136,270.137c-3.179-1.17-6.749-0.233-8.943,2.346l-27.158,31.902l-27.158-31.902
			c-2.194-2.578-5.763-3.517-8.943-2.345c-3.178,1.17-5.29,4.196-5.29,7.584v62.756c0,4.463,3.617,8.081,8.081,8.081
			c4.464,0,8.08-3.618,8.08-8.081v-40.798l19.077,22.41c1.535,1.804,3.785,2.842,6.153,2.842s4.618-1.039,6.153-2.842l19.077-22.41
			v40.798c0,4.463,3.617,8.081,8.081,8.081c4.464,0,8.08-3.618,8.08-8.08v-62.756C205.426,274.334,203.314,271.307,200.136,270.137z
			"/>
	</g>
</g>
<g>
	<g>
		<path d="M383.624,270.137c-3.179-1.17-6.749-0.233-8.943,2.346l-27.158,31.902l-27.157-31.902
			c-2.194-2.578-5.763-3.517-8.943-2.345c-3.178,1.169-5.29,4.196-5.29,7.584v62.756c0,4.463,3.617,8.081,8.08,8.081
			c4.464,0,8.081-3.618,8.081-8.081v-40.798l19.076,22.41c1.535,1.804,3.785,2.842,6.153,2.842s4.618-1.04,6.153-2.842l19.077-22.41
			v40.798c0,4.463,3.617,8.081,8.081,8.081c4.464,0,8.08-3.618,8.08-8.08v-62.756C388.914,274.334,386.802,271.307,383.624,270.137z
			"/>
	</g>
</g>
<g>
	<g>
		<path d="M255.778,269.64c-22.824,0-41.391,17.701-41.391,39.458s18.568,39.459,41.391,39.459
			c22.824,0,41.391-17.701,41.391-39.459C297.169,287.342,278.601,269.64,255.778,269.64z M255.778,332.396
			c-13.912,0-25.23-10.451-25.23-23.298c0-12.846,11.318-23.298,25.23-23.298c13.912,0,25.23,10.451,25.23,23.298
			S269.69,332.396,255.778,332.396z"/>
	</g>
</g>
</svg>
