<?xml version="1.0" encoding="iso-8859-1"?>
<svg version="1.1" id="Layer_1" xmlns="http://www.w3.org/2000/svg" xmlns:xlink="http://www.w3.org/1999/xlink" x="0px" y="0px"
	 viewBox="0 0 512.001 512.001" style="enable-background:new 0 0 512.001 512.001; fill:#FE1C41" xml:space="preserve">
<g>
	<g>
		<g>
			<path d="M364.451,219.16c-5.309-3.066-12.107-1.244-15.172,4.065c-15.328,26.546-41.419,45.362-71.586,51.604
				c-6.009,1.244-9.874,7.12-8.63,13.129c1.089,5.254,5.709,8.864,10.863,8.864c0.744,0,1.511-0.078,2.266-0.233
				c36.365-7.531,67.832-30.223,86.325-62.256C371.582,229.011,369.771,222.226,364.451,219.16z"/>
			<path d="M491.14,336.207c-2.044-2.91-5.343-4.665-8.897-4.732c-52.171-0.966-102.431,14.395-145.305,44.418
				c-28.645,20.06-52.259,45.44-69.831,74.796V337.773c55.847-3.721,106.896-35.188,135.075-84.004
				c30.034-52.015,30.045-116.659,0.022-168.718c-1.977-3.443-5.654-5.565-9.619-5.565c0,0,0,0-0.011,0
				c-17.983,0.011-35.588,2.943-52.248,8.397c-16.694-36.01-44.384-66.432-78.894-86.392c-3.443-1.988-7.686-1.988-11.118,0
				c-34.477,19.926-62.145,50.293-78.85,86.259c-16.816-5.476-34.277-8.253-52.037-8.264c-0.011,0-0.011,0-0.011,0
				c-3.965,0-7.642,2.121-9.619,5.554c-30.023,52.06-30.012,116.715,0.022,168.73c28.157,48.783,79.183,80.261,135.075,83.993
				v112.927c-17.572-29.356-41.186-54.736-69.831-74.796c-42.874-30.023-93.078-45.395-145.305-44.418
				c-3.554,0.067-6.853,1.822-8.897,4.732c-2.033,2.91-2.555,6.62-1.4,9.974c16.95,49.36,48.572,91.323,91.446,121.346
				c41.619,29.145,90.179,44.473,140.717,44.473h8.753c50.538,0,99.098-15.328,140.717-44.473
				c21.437-15.017,40.064-33.011,55.447-53.426c15.383-20.415,27.524-43.24,35.998-67.921
				C493.695,342.827,493.173,339.118,491.14,336.207z M123.647,449.335c-34.588-24.225-61.123-56.969-77.439-95.378
				c41.674,2.188,81.527,15.917,116.115,40.13c34.588,24.225,61.123,56.98,77.428,95.389
				C198.087,487.276,158.235,473.547,123.647,449.335z M237.551,314.726c-45.018-5.754-85.526-32.266-108.495-72.064
				c-24.991-43.285-26.035-96.655-3.143-140.817c16.294,0.733,32.255,4.154,47.528,10.208
				c29.112,11.518,53.115,31.445,69.753,57.802C219.602,214.872,217.725,268.331,237.551,314.726z M192.167,95.991
				c13.906-29.401,36.11-54.514,63.7-71.908c27.657,17.438,49.894,42.629,63.8,72.108c-25.036,12.018-47.039,30.134-63.633,52.981
				C239.495,126.247,217.769,108.143,192.167,95.991z M265.719,174.975c24.98-43.285,70.675-70.864,120.369-73.119
				c22.892,44.162,21.848,97.521-3.143,140.806c-24.98,43.274-70.675,70.864-120.369,73.119
				C239.684,271.62,240.728,218.259,265.719,174.975z M388.354,449.335c-34.588,24.214-74.429,37.942-116.104,40.141
				c16.305-38.409,42.841-71.164,77.428-95.389c34.588-24.214,74.44-37.942,116.115-40.13
				C449.477,392.365,422.942,425.109,388.354,449.335z"/>
		</g>
	</g>
</g>
<g id="SVGCleanerId_0">
	<g>
		<path d="M364.451,219.159c-5.309-3.066-12.107-1.244-15.172,4.065c-15.328,26.546-41.419,45.362-71.586,51.604
			c-6.009,1.244-9.874,7.12-8.63,13.129c1.089,5.254,5.709,8.864,10.863,8.864c0.744,0,1.511-0.078,2.266-0.233
			c36.365-7.531,67.832-30.223,86.325-62.256C371.582,229.011,369.771,222.226,364.451,219.159z"/>
	</g>
</g>
<g>
	<g>
		<path d="M364.451,219.159c-5.309-3.066-12.107-1.244-15.172,4.065c-15.328,26.546-41.419,45.362-71.586,51.604
			c-6.009,1.244-9.874,7.12-8.63,13.129c1.089,5.254,5.709,8.864,10.863,8.864c0.744,0,1.511-0.078,2.266-0.233
			c36.365-7.531,67.832-30.223,86.325-62.256C371.582,229.011,369.771,222.226,364.451,219.159z"/>
	</g>
</g>
</svg>
