<?xml version="1.0" encoding="iso-8859-1"?>
<svg version="1.1" id="Capa_1" xmlns="http://www.w3.org/2000/svg" xmlns:xlink="http://www.w3.org/1999/xlink" x="0px" y="0px"
	 viewBox="0 0 204.249 204.249" style="enable-background:new 0 0 204.249 204.249; stroke: #FE1C41; stroke-width: 2px;" xml:space="preserve" fill="#FE1C41" >
<g>
	<path d="M185.046,94.718c0.311-0.523,0.723-1.084,1.174-1.575c0.086-0.104,8.339-10.704,5.547-21.774
		c-1.381-5.476-5.164-9.953-11.248-13.31c1.532-3.761,3.504-10.733,0.948-17.569c-2.083-5.565-6.66-9.802-13.607-12.583
		c-0.723-4.345-3.207-14.552-11.134-21.176c-4.656-3.894-10.418-5.869-17.121-5.869c-1.059,0-2.108,0.05-2.924,0.147
		C135.243,0.834,127.498,0,116.747,0C98.81,0,73.103,2.273,52.568,13.074l-14.237,4.223H10.666v6.174h28.112l16.094-4.703
		C74.638,8.421,99.726,6.252,117.305,6.252c11.198,0,18.775,0.895,18.864,0.902l0.422,0.029l0.229-0.018
		c6.385-0.612,11.785,0.841,15.926,4.287c7.87,6.56,9.173,18.47,9.219,18.971l0.175,1.993l1.893,0.659
		c6.127,2.112,10.046,5.329,11.628,9.552c2.645,7.036-1.714,14.985-1.9,15.314l-1.686,2.956l3.106,1.392
		c5.919,2.659,9.484,6.22,10.59,10.572c1.832,7.219-3.267,14.888-4.28,16.32c-0.837,0.902-3.532,4.148-2.967,7.655l0.519,1.832
		l1.729,0.551c0.88,0.286,6.893,6.646,6.635,13.07c-0.2,4.971-4.388,8.453-12.458,10.357c-2.122,0.505-4.366,0.744-6.871,0.744
		c-2.935,0-5.891-0.34-8.74-0.659c-2.484-0.293-5.297-0.619-8.027-0.619c-6.478,0-14.663,1.657-20.539,14.584
		c-3.751,8.271-0.898,22.21,0.641,29.697l0.243,1.242c3.142,15.643,0.798,23.424-8.629,28.717c-2.834,1.585-5.494,2.119-6.893,1.41
		c-1.213-0.63-1.997-2.341-2.305-5.086c-0.104-0.963-0.004-2.52,0.079-4.037c0.437-7.591,1.16-20.31-10.679-38.394
		c-13.678-14.999-20.714-18.073-22.45-18.614c-6.778-4.03-12.991-9.48-19.075-14.827c-6.123-5.365-12.451-10.912-19.562-15.174
		l-0.712-0.422l-26.82-0.415l-0.455-0.011l-0.097,6.177l25.61,0.387c6.399,3.958,12.322,9.151,18.07,14.19
		c6.267,5.501,12.751,11.195,20.242,15.6l0.626,0.254c0.061,0.021,6.506,2.154,19.752,16.62c10.447,16.019,9.781,27.457,9.38,34.325
		c-0.104,1.832-0.208,3.565-0.039,5.007c0.54,4.939,2.434,8.271,5.608,9.899c1.296,0.673,2.766,1.006,4.37,1.006
		c2.545,0,5.433-0.866,8.371-2.516c14.806-8.31,14.348-21.885,11.653-35.316l-0.258-1.256c-1.281-6.327-3.962-19.494-1.052-25.914
		c4.141-9.122,8.893-10.991,14.752-10.991c2.29,0,4.846,0.293,7.605,0.612c2.97,0.344,6.041,0.687,9.326,0.687
		c3.013,0,5.726-0.297,8.278-0.898c14.333-3.382,17.286-11.055,17.229-16.906C193.528,104.477,188.66,97.549,185.046,94.718z"/>
</g>
</svg>
